<?xml version="1.0" encoding="UTF-8" standalone="no"?>
<svg
   width="200"
   height="200"
   version="1.1"
   viewBox="0 0 200 200"
   id="svg4"
   xmlns="http://www.w3.org/2000/svg"
   xmlns:svg="http://www.w3.org/2000/svg">
  <defs
     id="defs4" />
  <ellipse
     style="fill:#9eff00;fill-opacity:1;stroke-width:0.157;stroke-dasharray:none"
     id="path7-6"
     cx="134.3643"
     cy="57.638947"
     rx="21.766491"
     ry="22.344664" />
  <ellipse
     style="fill:#9eff00;fill-opacity:1;stroke-width:0.157;stroke-dasharray:none"
     id="path7"
     cx="65.541183"
     cy="57.919563"
     rx="21.766491"
     ry="22.344664" />
  <ellipse
     style="fill:#9eff00;fill-opacity:1;stroke-width:0.241087;stroke-dasharray:none"
     id="path5-3"
     cx="-127.71927"
     cy="-131.66313"
     rx="12.955094"
     ry="7.105948"
     transform="matrix(-0.75342329,0.65753582,-0.64578563,-0.76351877,0,0)" />
  <ellipse
     style="fill:#9eff00;fill-opacity:1;stroke-width:0.17902;stroke-dasharray:none"
     id="path8"
     cx="132.73392"
     cy="-92.953712"
     rx="17.865486"
     ry="23.850813"
     transform="rotate(48.352077)" />
  <path
     d="m 151.58,75.37905 c -11.799,7.6875 -21.144,9.6794 -28.494,6.0734 -1.2454,-0.6111 -2.6098,-1.4991 -2.6298,-1.7116 -0.008,-0.0812 0.15023,-0.32925 0.35088,-0.55128 0.2071,-0.22908 0.48339,-0.95185 0.63898,-1.6713 0.61864,-2.8604 1.8734,-6.6186 3.1812,-9.5288 l 0.57853,-1.2873 0.78321,0.68841 c 1.7891,1.5726 4.2438,2.3365 6.2808,1.9545 0.61859,-0.11598 1.7333,-0.39377 2.4772,-0.6173 2.4955,-0.74991 4.226,-0.22544 5.7594,1.7455 0.65975,0.84799 0.74765,0.92208 0.55198,0.46533 -0.61003,-1.424 -2.7633,-2.9871 -4.2205,-3.0637 -0.39909,-0.02096 -1.7795,0.17475 -3.0676,0.43491 -1.8944,0.38262 -2.5378,0.43327 -3.3661,0.26499 -1.5549,-0.31589 -2.893,-1.0401 -4.1401,-2.2407 l -0.60507,-0.58248 0.91675,-1.6375 c 1.749,-3.124 4.3841,-6.7758 6.8335,-9.47 0.51873,-0.57058 0.9642,-1.0294 0.98999,-1.0196 0.0258,0.0098 0.50145,0.41374 1.057,0.89771 1.2889,1.1228 2.7255,1.8453 4.2165,2.1208 1.26,0.2328 2.2601,0.10915 4.4651,-0.552 2.7022,-0.81026 4.2185,-0.41694 5.9425,1.5415 l 0.98146,1.1148 -0.84178,-1.1538 c -1.712,-2.3463 -3.3195,-2.8357 -6.6452,-2.0231 -2.304,0.56296 -3.7251,0.47459 -5.3755,-0.33426 -0.92413,-0.4529 -2.428,-1.5878 -2.8822,-2.1751 -0.2072,-0.26795 0.13907,-0.62956 2.7763,-2.8993 2.1103,-1.8162 4.9787,-3.8169 7.4485,-5.1954 l 1.1654,-0.65042 0.90929,0.89671 c 1.7227,1.6989 3.7788,2.622 5.8381,2.6211 0.60553,-2.62e-4 1.7822,-0.23292 2.8956,-0.57257 3.0694,-0.93631 4.4511,-0.61515 6.3225,1.4696 l 0.98885,1.1016 -1.0666,-1.351 c -0.93015,-1.1783 -1.1759,-1.4034 -1.9215,-1.7602 -1.1433,-0.54718 -2.3128,-0.59012 -4.1314,-0.15168 -0.83071,0.20028 -1.9947,0.39389 -2.5867,0.43026 -1.8428,0.11319 -4.0012,-0.84135 -5.7334,-2.5357 l -0.5704,-0.55792 0.6903,-0.37602 c 0.9252,-0.50398 4.7126,-2.0931 8.5062,-3.5689 7.5862,-2.9514 11.663,-5.1617 14.988,-8.1268 2.5902,-2.3097 4.1051,-4.3494 6.8884,-9.2744 4.3087,-7.6241 6.6694,-10.229 11.636,-12.842 0.719,-0.37824 1.3131,-0.72969 1.3202,-0.78103 0.0329,-0.23764 -2.8015,1.3277 -4.3763,2.4169 -1.9083,1.3198 -3.3508,2.6524 -4.7179,4.3586 -1.2315,1.537 -1.7709,2.358 -4.2505,6.4707 -3.7801,6.2696 -4.6265,7.2992 -8.2409,10.025 -3.6338,2.7402 -5.7752,3.7822 -14.451,7.0308 -2.5811,0.96641 -4.7788,1.7501 -4.8838,1.7414 -0.31731,-0.02607 -0.99833,-2.145 -1.088,-3.3855 -0.16169,-2.2355 0.35621,-3.6865 2.0558,-5.7598 0.55845,-0.68126 1.1834,-1.5538 1.3888,-1.939 0.81994,-1.5376 0.64805,-3.5178 -0.44424,-5.1178 l -0.6143,-0.89974 0.44069,0.79696 c 0.84511,1.5284 1.0049,3.3803 0.39948,4.6291 -0.16243,0.33507 -0.71881,1.0782 -1.2364,1.6515 -0.51755,0.57323 -1.1536,1.2957 -1.4135,1.6055 -1.6348,1.9488 -1.9965,5.1739 -0.89331,7.9647 l 0.37828,0.95694 -1.551,0.70479 c -2.492,1.1324 -6.8134,3.6519 -8.6763,5.0585 l -0.35261,0.26634 -0.3057,-0.93406 c -0.59857,-1.8292 -0.59173,-4.0749 0.017,-5.5428 0.16456,-0.39687 0.85048,-1.4115 1.5242,-2.2547 1.4278,-1.7869 1.7948,-2.482 1.9381,-3.6706 0.14333,-1.1889 -0.17262,-2.3989 -0.90847,-3.4793 l -0.60614,-0.8899 0.46668,0.87459 c 1.3214,2.4765 0.87023,4.601 -1.455,6.851 -2.3293,2.2539 -2.977,5.2739 -1.847,8.6122 l 0.3495,1.0326 -0.6265,0.58177 c -0.3446,0.31997 -1.1593,1.0389 -1.8104,1.5977 -2.2245,1.9089 -4.8365,4.7396 -6.8568,7.4309 l -1.148,1.5294 -0.48115,-0.47253 c -0.58507,-0.57457 -1.4583,-2.1837 -1.7777,-3.2758 -0.50904,-1.7406 -0.37689,-2.9099 0.61781,-5.4659 0.28796,-0.73998 0.56386,-1.6832 0.61313,-2.0961 0.1904,-1.5963 -0.69803,-3.5637 -2.1322,-4.7217 l -0.72275,-0.58359 0.96029,1.1438 c 1.7798,2.1199 1.8961,3.5034 0.53562,6.372 -1.548,3.2641 -1.2702,5.9631 0.91398,8.8791 l 0.84947,1.1341 -0.99887,1.6252 c -1.3227,2.1519 -2.9289,5.3321 -3.8537,7.6297 -1.5334,3.8097 -2.7637,8.4053 -2.5313,9.4555 l 0.13814,0.62444 -0.70858,-0.56347 c -0.49054,-0.3901 -1.2989,-1.3501 -2.6269,-3.1199 -1.589,-2.1176 -2.0373,-2.8154 -2.6116,-4.0655 -4.6574,-10.138 -3.6061,-21.644 2.8272,-30.942 2.2801,-3.2954 4.5696,-5.6308 8.238,-8.4033 10.773,-8.1421 36.555,-20.172 53.175,-24.813 6.4272,-1.7944 11.651,-2.4208 13.936,-1.671 1.8952,0.62206 2.5452,1.5926 2.2694,3.3888 -0.20202,1.3162 -0.90647,2.7465 -2.9709,6.0322 -3.5743,5.6889 -5.4334,9.1443 -11.782,21.9 -2.9157,5.858 -5.9226,11.786 -6.682,13.173 -6.0306,11.014 -11.115,17.309 -18.277,22.628 -1.4314,1.0631 -2.8814,2.1145 -3.2221,2.3365 z"
     stroke-width="0.15672"
     id="path1"
     style="fill:#10843b;stroke:#10843b" />
  <ellipse
     style="fill:#9eff00;fill-opacity:1;stroke-width:0.241087;stroke-dasharray:none"
     id="path5"
     cx="25.392046"
     cy="4.1634827"
     rx="12.955094"
     ry="7.105948"
     transform="matrix(0.88444864,0.46663754,-0.48028255,0.87711383,0,0)" />
  <ellipse
     style="fill:#9eff00;fill-opacity:1;stroke-width:0.157;stroke-dasharray:none"
     id="path6"
     cx="53.459232"
     cy="10.35134"
     rx="25.813871"
     ry="15.620137"
     transform="rotate(28.514098)" />
  <path
     d="m 48.416,75.36105 c 11.799,7.6875 21.144,9.6794 28.494,6.0734 1.2454,-0.6111 2.6098,-1.4991 2.6298,-1.7116 0.008,-0.0812 -0.15023,-0.32925 -0.35088,-0.55128 -0.2071,-0.22908 -0.48339,-0.95185 -0.63898,-1.6713 -0.61864,-2.8604 -1.8734,-6.6186 -3.1812,-9.5288 l -0.57853,-1.2873 -0.78321,0.68841 c -1.7891,1.5726 -4.2438,2.3365 -6.2808,1.9545 -0.61859,-0.11598 -1.7333,-0.39377 -2.4772,-0.6173 -2.4955,-0.74991 -4.226,-0.22544 -5.7594,1.7455 -0.65975,0.84799 -0.74765,0.92208 -0.55198,0.46533 0.61003,-1.424 2.7633,-2.9871 4.2205,-3.0637 0.39909,-0.02096 1.7795,0.17475 3.0676,0.43491 1.8944,0.38262 2.5378,0.43327 3.3661,0.26499 1.5549,-0.31589 2.893,-1.0401 4.1401,-2.2407 l 0.60507,-0.58248 -0.91675,-1.6375 c -1.749,-3.124 -4.3841,-6.7758 -6.8335,-9.47 -0.51873,-0.57058 -0.9642,-1.0294 -0.98999,-1.0196 -0.0258,0.0098 -0.50145,0.41374 -1.057,0.89771 -1.2889,1.1228 -2.7255,1.8453 -4.2165,2.1208 -1.26,0.2328 -2.2601,0.10915 -4.4651,-0.552 -2.7022,-0.81026 -4.2185,-0.41694 -5.9425,1.5415 l -0.98146,1.1148 0.84178,-1.1538 c 1.712,-2.3463 3.3195,-2.8357 6.6452,-2.0231 2.304,0.56296 3.7251,0.47459 5.3755,-0.33426 0.92413,-0.4529 2.428,-1.5878 2.8822,-2.1751 0.2072,-0.26795 -0.13907,-0.62956 -2.7763,-2.8993 -2.1103,-1.8162 -4.9787,-3.8169 -7.4485,-5.1954 l -1.1654,-0.65042 -0.90929,0.89671 c -1.7227,1.6989 -3.7788,2.622 -5.8381,2.6211 -0.60553,-2.62e-4 -1.7822,-0.23292 -2.8956,-0.57257 -3.0694,-0.93631 -4.4511,-0.61515 -6.3225,1.4696 l -0.98885,1.1016 1.0666,-1.351 c 0.93015,-1.1783 1.1759,-1.4034 1.9215,-1.7602 1.1433,-0.54718 2.3128,-0.59012 4.1314,-0.15168 0.83071,0.20028 1.9947,0.39389 2.5867,0.43026 1.8428,0.11319 4.0012,-0.84135 5.7334,-2.5357 l 0.5704,-0.55792 -0.6903,-0.37602 c -0.9252,-0.50398 -4.7126,-2.0931 -8.5062,-3.5689 -7.5862,-2.9514 -11.663,-5.1617 -14.988,-8.1268 -2.5902,-2.3097 -4.1051,-4.3494 -6.8884,-9.2744 -4.3087,-7.6241 -6.6694,-10.229 -11.636,-12.842 -0.719,-0.37824 -1.3131,-0.72969 -1.3202,-0.78103 -0.0329,-0.23764 2.8015,1.3277 4.3763,2.4169 1.9083,1.3198 3.3508,2.6524 4.7179,4.3586 1.2315,1.537 1.7709,2.358 4.2505,6.4707 3.7801,6.2696 4.6265,7.2992 8.2409,10.025 3.6338,2.7402 5.7752,3.7822 14.451,7.0308 2.5811,0.96641 4.7788,1.7501 4.8838,1.7414 0.31731,-0.02607 0.99833,-2.145 1.088,-3.3855 0.16169,-2.2355 -0.35621,-3.6865 -2.0558,-5.7598 -0.55845,-0.68126 -1.1834,-1.5538 -1.3888,-1.939 -0.81994,-1.5376 -0.64805,-3.5178 0.44424,-5.1178 l 0.6143,-0.89974 -0.44069,0.79696 c -0.84511,1.5284 -1.0049,3.3803 -0.39948,4.6291 0.16243,0.33507 0.71881,1.0782 1.2364,1.6515 0.51755,0.57323 1.1536,1.2957 1.4135,1.6055 1.6348,1.9488 1.9965,5.1739 0.89331,7.9647 l -0.37828,0.95694 1.551,0.70479 c 2.492,1.1324 6.8134,3.6519 8.6763,5.0585 l 0.35261,0.26634 0.3057,-0.93406 c 0.59857,-1.8292 0.59173,-4.0749 -0.017,-5.5428 -0.16456,-0.39687 -0.85048,-1.4115 -1.5242,-2.2547 -1.4278,-1.7869 -1.7948,-2.482 -1.9381,-3.6706 -0.14333,-1.1889 0.17262,-2.3989 0.90847,-3.4793 l 0.60614,-0.8899 -0.46668,0.87459 c -1.3214,2.4765 -0.87023,4.601 1.455,6.851 2.3293,2.2539 2.977,5.2739 1.847,8.6122 l -0.3495,1.0326 0.6265,0.58177 c 0.3446,0.31997 1.1593,1.0389 1.8104,1.5977 2.2245,1.9089 4.8365,4.7396 6.8568,7.4309 l 1.148,1.5294 0.48115,-0.47253 c 0.58507,-0.57457 1.4583,-2.1837 1.7777,-3.2758 0.50904,-1.7406 0.37689,-2.9099 -0.61781,-5.4659 -0.28796,-0.73998 -0.56386,-1.6832 -0.61313,-2.0961 -0.1904,-1.5963 0.69803,-3.5637 2.1322,-4.7217 l 0.72275,-0.58359 -0.96029,1.1438 c -1.7798,2.1199 -1.8961,3.5034 -0.53562,6.372 1.548,3.2641 1.2702,5.9631 -0.91398,8.8791 l -0.84947,1.1341 0.99887,1.6252 c 1.3227,2.1519 2.9289,5.3321 3.8537,7.6297 1.5334,3.8097 2.7637,8.4053 2.5313,9.4555 L 79.98,79.48192 80.68858,78.91845 c 0.49054,-0.3901 1.2989,-1.3501 2.6269,-3.1199 1.589,-2.1176 2.0373,-2.8154 2.6116,-4.0655 4.6574,-10.138 3.6061,-21.644 -2.8272,-30.942 -2.2801,-3.2954 -4.5696,-5.6308 -8.238,-8.4033 -10.773,-8.1421 -36.555,-20.172 -53.175,-24.813 -6.4272,-1.7944 -11.651,-2.4208 -13.936,-1.671 -1.8952,0.62206 -2.5452,1.5926 -2.2694,3.3888 0.20202,1.3162 0.90647,2.7465 2.9709,6.0322 3.5743,5.6889 5.4334,9.1443 11.782,21.9 2.9157,5.858 5.9226,11.786 6.682,13.173 6.0306,11.014 11.115,17.309 18.277,22.628 1.4314,1.0631 2.8814,2.1145 3.2221,2.3365 z"
     stroke-width="0.15672"
     id="path2"
     style="fill:#10843b;stroke:#10843b;stroke-width:0.157;stroke-dasharray:none" />
  <path
     d="m 100.24,100.42505 c 17.76,-12.38 23.554,-25.332 23.554,-25.332"
     stroke-width="16.522"
     id="path3"
     style="fill:#10843b;stroke:#10843b" />
  <path
     d="m 100.24,100.42505 c -17.76,-12.38 -23.554,-25.332 -23.554,-25.332"
     stroke-width="16.522"
     id="path4"
     style="fill:#10843b;stroke:#10843b" />
  <rect
     x="90.435997"
     y="96.237053"
     width="19.128"
     height="97.552002"
     stroke-width="1.3948"
     id="rect4"
     style="fill:#10843b;stroke:#10843b" />
</svg>
