<?xml version="1.0" encoding="UTF-8" standalone="no"?>
<svg
   version="1.1"
   viewBox="0 0 600 300"
   id="svg18"
   xmlns="http://www.w3.org/2000/svg"
   xmlns:svg="http://www.w3.org/2000/svg">
  <defs
     id="defs6">
    <marker
       id="marker2972"
       overflow="visible"
       orient="auto">
      <path
         transform="matrix(-.2 0 0 -.2 -1.2 0)"
         d="m0 0 5-5-17.5 5 17.5 5z"
         fill="#fff"
         fill-rule="evenodd"
         stroke="#fff"
         stroke-width="1pt"
         id="path1" />
    </marker>
    <marker
       id="Arrow1Send"
       overflow="visible"
       orient="auto">
      <path
         transform="matrix(-.2 0 0 -.2 -1.2 0)"
         d="m0 0 5-5-17.5 5 17.5 5z"
         fill="#fff"
         fill-rule="evenodd"
         stroke="#fff"
         stroke-width="1pt"
         id="path2" />
    </marker>
    <marker
       id="marker2247"
       overflow="visible"
       orient="auto">
      <path
         transform="matrix(-.8 0 0 -.8 -10 0)"
         d="m0 0 5-5-17.5 5 17.5 5z"
         fill="#9bf33e"
         fill-rule="evenodd"
         stroke="#9bf33e"
         stroke-width="1pt"
         id="path3" />
    </marker>
    <marker
       id="marker1987"
       overflow="visible"
       orient="auto">
      <path
         transform="matrix(.8 0 0 .8 10 0)"
         d="m0 0 5-5-17.5 5 17.5 5z"
         fill="#9bf33e"
         fill-rule="evenodd"
         stroke="#9bf33e"
         stroke-width="1pt"
         id="path4" />
    </marker>
    <marker
       id="marker1872"
       overflow="visible"
       orient="auto">
      <path
         transform="matrix(.8 0 0 .8 10 0)"
         d="m0 0 5-5-17.5 5 17.5 5z"
         fill="#fc7d62"
         fill-rule="evenodd"
         stroke="#fc7d62"
         stroke-width="1pt"
         id="path5" />
    </marker>
    <marker
       id="marker1630"
       overflow="visible"
       orient="auto">
      <path
         transform="matrix(-.8 0 0 -.8 -10 0)"
         d="m0 0 5-5-17.5 5 17.5 5z"
         fill="#fc7d62"
         fill-rule="evenodd"
         stroke="#fc7d62"
         stroke-width="1pt"
         id="path6" />
    </marker>
  </defs>
  <rect
     width="600"
     height="300"
     fill="#02040a"
     id="rect6" />
  <g
     transform="matrix(3.3333 0 0 3.3333 27.37 10.297)"
     fill="none"
     id="g11">
    <g
       stroke="#fff"
       id="g9">
      <path
         d="m134.53 69.445c-0.13587-0.02051-0.27174-0.04684-0.4076-0.07316-0.13588-0.02582-0.27174-0.0553-0.40761-0.08163-0.13587-0.02837-0.27174-0.05837-0.40761-0.09-0.13587-0.03153-0.27173-0.06316-0.40761-0.1-0.13586-0.0348-0.27173-0.07326-0.4076-0.11005-0.13587-0.03847-0.27174-0.07949-0.40761-0.12163-0.13586-0.04214-0.27174-0.08643-0.4076-0.13374-0.13587-0.04684-0.27174-0.09479-0.40761-0.14743-0.13587-0.05163-0.27174-0.10533-0.4076-0.16165-0.13588-0.05633-0.27174-0.11528-0.40761-0.17692-0.13587-0.06163-0.27174-0.1259-0.40761-0.19324-0.13587-0.06684-0.27173-0.13746-0.40761-0.21062-0.13586-0.07316-0.27174-0.14958-0.4076-0.22958-0.13587-0.08-0.27174-0.16274-0.40761-0.24958-0.13586-0.08684-0.27174-0.17688-0.4076-0.27065-0.13588-0.09428-0.27174-0.19165-0.40761-0.29328-0.13587-0.10112-0.27174-0.20694-0.4076-0.31646-0.13588-0.11005-0.27174-0.22378-0.40762-0.34173-0.13586-0.11847-0.27173-0.24115-0.4076-0.36805s-0.27173-0.25854-0.40761-0.39492c-0.13586-0.13638-0.27174-0.27749-0.4076-0.42387-0.13587-0.14585-0.27174-0.29697-0.40761-0.45335-0.13586-0.15639-0.27174-0.31751-0.4076-0.48442-0.13588-0.16692-0.27174-0.3391-0.40761-0.51654-0.13587-0.17788-0.27174-0.36059-0.4076-0.54962-0.13588-0.18871-0.27174-0.38354-0.40762-0.58362-0.13586-0.20041-0.27173-0.40629-0.4076-0.61848-0.13587-0.21225-0.27174-0.42972-0.40761-0.65403-0.13586-0.22431-0.27174-0.45388-0.4076-0.6903-0.13587-0.23621-0.27174-0.47842-0.40761-0.72695-0.13587-0.24859-0.27174-0.50343-0.4076-0.76408-0.13588-0.26091-0.27174-0.52803-0.40761-0.8013-0.13587-0.27333-0.27174-0.55267-0.40761-0.83858-0.13587-0.28571-0.27173-0.57763-0.40761-0.87566-0.13586-0.29802-0.27173-0.60226-0.4076-0.9124-0.13587-0.31019-0.27174-0.62627-0.40761-0.94852-0.13586-0.32214-0.27174-0.65008-0.4076-0.9839-0.13587-0.33373-0.27174-0.67335-0.40761-1.0182-0.13587-0.345-0.27174-0.69536-0.4076-1.0513-0.13588-0.35579-0.27174-0.71695-0.40762-1.0828-0.13586-0.36606-0.27173-0.7368-0.4076-1.1127-0.13587-0.37569-0.27173-0.75622-0.40761-1.1406-0.13586-0.38459-0.27174-0.77344-0.4076-1.1662-0.13587-0.3927-0.27174-0.78914-0.40761-1.1893-0.13586-0.40002-0.27174-0.80325-0.4076-1.2098-0.13588-0.40633-0.27174-0.81541-0.40761-1.2271-0.13587-0.4116-0.27174-0.82536-0.4076-1.2413-0.13588-0.41576-0.27174-0.83352-0.40762-1.2521-0.13586-0.41881-0.27173-0.83864-0.4076-1.2594-0.13587-0.4205-0.27173-0.84189-0.40761-1.2626-0.13586-0.42098-0.27174-0.84174-0.4076-1.2619-0.13587-0.42003-0.27174-0.83947-0.40761-1.257-0.13587-0.41776-0.27174-0.83406-0.4076-1.2479-0.13588-0.41392-0.27174-0.82568-0.40761-1.2343-0.13587-0.40865-0.27174-0.81441-0.40761-1.2162-0.13587-0.40186-0.27173-0.80014-0.40761-1.1935-0.13586-0.39354-0.27173-0.78234-0.4076-1.1662-0.13587-0.38364-0.27174-0.76196-0.40761-1.1343-0.13586-0.37222-0.27174-0.73859-0.4076-1.0976-0.13587-0.35926-0.27174-0.71173-0.40761-1.0566-0.13587-0.34483-0.27174-0.68193-0.4076-1.011-0.13588-0.32894-0.27174-0.64944-0.40761-0.96116-0.13587-0.31161-0.27174-0.61432-0.40761-0.90708-0.13587-0.29286-0.27173-0.57615-0.40761-0.8489-0.13586-0.27307-0.27173-0.53529-0.4076-0.78697-0.13587-0.25174-0.27174-0.49237-0.40761-0.72142-0.13586-0.2292-0.27174-0.44667-0.4076-0.65255-0.13588-0.20577-0.27174-0.39955-0.40761-0.58068s-0.27174-0.35015-0.4076-0.50602c-0.13588-0.15586-0.27174-0.29908-0.40762-0.42914-0.13586-0.13006-0.27173-0.24695-0.4076-0.35015s-0.27173-0.19272-0.40761-0.26907c-0.13586-0.07635-0.27174-0.14006-0.4076-0.18745-0.13587-0.0486-0.27174-0.08324-0.40761-0.1043-0.13586-0.02104-0.27174-0.0279-0.4076-0.02106-0.13588 0.0069-0.27174 0.02785-0.40761 0.0626s-0.27174 0.08372-0.4076 0.14586c-0.13588 0.06266-0.27174 0.13901-0.40762 0.22852-0.13586 0.08951-0.27173 0.19271-0.4076 0.30961-0.13587 0.11637-0.27174 0.24643-0.40761 0.38965-0.13586 0.14269-0.27174 0.29908-0.4076 0.46758-0.13587 0.16875-0.27174 0.3499-0.40761 0.54366-0.13587 0.19366-0.27174 0.39955-0.4076 0.61701-0.13588 0.21773-0.27174 0.44677-0.40761 0.6874-0.13587 0.24073-0.27174 0.49242-0.40761 0.75465-0.13586 0.26238-0.27173 0.53513-0.4076 0.81841-0.13586 0.28302-0.27173 0.5762-0.4076 0.87844-0.13586 0.30245-0.27174 0.61395-0.4076 0.93462-0.13586 0.32046-0.27174 0.64966-0.4076 0.98665-0.13586 0.3371-0.27174 0.68214-0.4076 1.0344-0.13588 0.35226-0.27174 0.71179-0.4076 1.0777-0.13588 0.36595-0.27174 0.73848-0.40762 1.1165-0.13586 0.37811-0.27173 0.76218-0.4076 1.1508-0.13586 0.3888-0.27173 0.78234-0.4076 1.1804-0.13586 0.39785-0.27174 0.79993-0.4076 1.2054s-0.27174 0.81404-0.4076 1.2258c-0.13586 0.4115-0.27174 0.82568-0.4076 1.2416-0.13588 0.41603-0.27174 0.83389-0.4076 1.2531-0.13588 0.41908-0.27174 0.83932-0.4076 1.26-0.13588 0.42066-0.27174 0.84205-0.40762 1.2627-0.13586 0.42092-0.27173 0.84179-0.4076 1.2614-0.13586 0.41981-0.27173 0.83863-0.4076 1.2562-0.13586 0.41744-0.27174 0.83331-0.4076 1.2471-0.13586 0.41382-0.27174 0.82558-0.4076 1.2347-0.13586 0.40908-0.27174 0.81546-0.4076 1.2188-0.13588 0.40328-0.27174 0.80341-0.4076 1.1999-0.13588 0.39649-0.27174 0.78956-0.40762 1.1782-0.13586 0.38874-0.27173 0.77349-0.4076 1.1537-0.13586 0.38022-0.27173 0.75628-0.4076 1.1269-0.13586 0.37095-0.27174 0.73685-0.4076 1.0981-0.13586 0.361-0.27174 0.71663-0.4076 1.0673-0.13586 0.35047-0.27174 0.69531-0.4076 1.0349-0.13588 0.33942-0.27174 0.67319-0.4076 1.0012-0.13588 0.32799-0.27174 0.64986-0.4076 0.96632-0.13588 0.31619-0.27174 0.62623-0.40762 0.93057-0.13586 0.30413-0.27173 0.60236-0.4076 0.89407-0.13586 0.29186-0.27173 0.57757-0.4076 0.85717-0.13586 0.27949-0.27174 0.55298-0.4076 0.81994-0.13586 0.26717-0.27174 0.52781-0.4076 0.78266-0.13588 0.25474-0.27174 0.50327-0.4076 0.74548-0.13588 0.24258-0.27174 0.47848-0.4076 0.70858-0.13588 0.22978-0.27174 0.4541-0.40762 0.67209-0.13586 0.2181-0.27173 0.43029-0.4076 0.63618-0.13586 0.20603-0.27173 0.40612-0.4076 0.60094-0.13586 0.19471-0.27174 0.38322-0.4076 0.56646-0.13586 0.18334-0.27174 0.36078-0.4076 0.53296s-0.27174 0.33857-0.4076 0.50022c-0.13588 0.16165-0.27174 0.31804-0.4076 0.46916-0.13588 0.15111-0.27174 0.2975-0.4076 0.43861-0.13588 0.14111-0.27174 0.27749-0.40762 0.40913-0.13586 0.13163-0.27173 0.25853-0.4076 0.38122-0.13586 0.12268-0.27174 0.24063-0.4076 0.35436s-0.27174 0.22378-0.4076 0.32909c-0.13586 0.10584-0.27174 0.20692-0.4076 0.30488-0.13588 0.09796-0.27174 0.1917-0.4076 0.2817-0.13588 0.09061-0.27174 0.17695-0.4076 0.26011-0.13588 0.08316-0.27174 0.16325-0.40762 0.23958-0.13586 0.07633-0.27173 0.14949-0.4076 0.2201-0.13586 0.07051-0.27173 0.13791-0.4076 0.20219-0.13586 0.06428-0.27174 0.12584-0.4076 0.18482s-0.27174 0.11536-0.4076 0.16903-0.27174 0.10693-0.4076 0.15427c-0.13588 0.04898-0.27174 0.09847-0.4076 0.14059-0.13588 0.0448-0.27174 0.08582-0.4076 0.12795-0.13588 0.04051-0.27174 0.07898-0.40762 0.11585-0.13586 0.03633-0.27173 0.07316-0.4076 0.10478-0.13586 0.03316-0.27174 0.06316-0.4076 0.0948-0.13586 0.03-0.27174 0.05949-0.4076 0.08581-0.13586 0.0248-0.27174 0.05112-0.4076 0.07745-0.13588 0.02214-0.27174 0.04847-0.4076 0.06949-0.13586 0.02-0.27174 0.04112-0.4076 0.06214-0.13586 0.01898-0.27174 0.04-0.4076 0.05582-0.13586 0.01571-0.27174 0.03153-0.4076 0.04735s-0.27174 0.02633-0.4076 0.04214c-0.13586 0.01582-0.27174 0.03163-0.4076 0.04214-0.13586 0.01582-0.27174 0.02633-0.4076 0.03684-0.13586 0.01061-0.27174 0.02112-0.4076 0.03163s-0.27174 0.01582-0.4076 0.02633-0.27174 0.02122-0.4076 0.02633c-0.13586 0.0051-0.27174 0.01592-0.4076 0.02102-0.13586 0.01051-0.27174 0.01592-0.4076 0.02102s-0.27174 0.01071-0.4076 0.01582c-0.13586 0.0051-0.27174 0.01071-0.4076 0.01582-0.13586 0-0.27174 0.0061-0.4076 0.01051-0.13586 0.0051-0.27174 0.0061-0.4076 0.01051-0.13586 0.0051-0.27174 0.0071-0.4076 0.01051-0.13586 0.0051-0.27174 0.0071-0.4076 0.01051-0.13586 0-0.27174 0.0031-0.4076 0.0051-0.13586 1e-3 -0.27174 0.0031-0.4076 0.0051-0.13586 1e-3 -0.27174 0.0031-0.4076 0.0051s-0.27174 0.0031-0.4076 0.0051c-0.13586 1e-3 -0.27174 0.0031-0.4076 0.0041-0.13586 2e-3 -0.27174 0.0031-0.4076 0.0041s-0.27174 2e-3 -0.4076 0.0031l-0.4076 0.0031c-0.13586 1e-3 -0.27174 1e-3 -0.4076 2e-3s-0.27174 1e-3 -0.4076 2e-3 -0.27174 1e-3 -0.4076 2e-3c-0.13586 7.1e-5 -0.27174 5.51e-4 -0.4076 1e-3 -0.13586 1.84e-4 -0.27174 6.02e-4 -0.4076 1e-3 -0.13586 2.75e-4 -0.27174 6.42e-4 -0.4076 1e-3 -0.13586 3.16e-4 -0.27174 6.33e-4 -0.4076 8.88e-4 -0.13586 2.65e-4 -0.27174 5.3e-4 -0.4076 7.96e-4 -0.13586 2.04e-4 -0.27174 4.69e-4 -0.4076 6.83e-4 -0.13586 1.53e-4 -0.27174 3.68e-4 -0.4076 5.21e-4 -0.13586 1.63e-4 -0.27174 3.16e-4 -0.4076 4.79e-4 -0.13586 1.53e-4 -0.27174 3.17e-4 -0.4076 4.19e-4s-0.27174 2.14e-4 -0.4076 3.16e-4 -0.27174 2.14e-4 -0.4076 3.16e-4c-0.13586 5.1e-5 -0.27174 1.64e-4 -0.4076 2.15e-4 -0.13586 1.02e-4 -0.27174 1.53e-4 -0.4076 2.04e-4s-0.27174 1.12e-4 -0.4076 1.63e-4 -0.27174 1.02e-4 -0.4076 1.53e-4 -0.27174 5.1e-5 -0.4076 1.12e-4c-0.13586 5.1e-5 -0.27174 5.1e-5 -0.4076 1.02e-4 -0.13586 0-0.27174 5.1e-5 -0.4076 5.1e-5 -0.13586 5.1e-5 -0.27174 5.1e-5 -0.4076 1.02e-4 -0.13586 0-0.27174 0-0.4076 6.2e-5 -0.13586 0-0.27174 0-0.4076 5.1e-5h-0.4076c-0.13586 0-0.27174 5.1e-5 -0.4076 5.1e-5h-0.4076c-0.13586 0-0.27174 5.1e-5 -0.4076 5.1e-5h-0.81521c-0.13586 0-0.27174 0-0.4076 5.1e-5h-37.908v-63.534"
         marker-end="url(#marker2972)"
         stroke-width="1.335"
         title="t (1/sqrt(2*pi))*exp(-pow(t,2)/2)"
         id="path7" />
      <path
         d="m12.656 70.016h144.95"
         fill="#fff"
         marker-end="url(#Arrow1Send)"
         stroke-width="1.335"
         id="path8" />
      <path
         d="m49.739 70.21v-58.091"
         stroke-dasharray="0.26702779, 0.26702779"
         stroke-width=".26702"
         id="path9" />
    </g>
    <path
       d="m102.71 16.007h-52.479"
       marker-end="url(#marker2247)"
       marker-start="url(#marker1987)"
       stroke="#9bf33e"
       stroke-width=".401"
       id="path10" />
    <path
       d="m123.77 75.23h-38.339"
       fill="#fc7d62"
       marker-end="url(#marker1630)"
       marker-start="url(#marker1872)"
       stroke="#fc7d62"
       stroke-width=".401"
       id="path11" />
  </g>
  <text
     transform="scale(0.98904093,1.0110805)"
     x="164.41176"
     y="3.5794332"
     text-align="end"
     style="font-size:14.1115px;line-height:125%;font-family:sans-serif;font-variant-ligatures:normal;font-variant-caps:normal;font-variant-numeric:normal;font-feature-settings:normal;letter-spacing:0px;word-spacing:0px;text-anchor:end;stroke-width:0.890075px"
     xml:space="preserve"
     id="text11"><tspan
       x="164.41176"
       y="35.080662"
       font-family="sans-serif"
       font-size="14.1115px"
       stroke-width="0.890075px"
       text-align="end"
       text-anchor="end"
       style="font-variant-ligatures:normal;font-variant-caps:normal;font-variant-numeric:normal;font-feature-settings:normal"
       id="tspan11" /></text>
  <text
     transform="scale(0.98904093,1.0110805)"
     x="335.75272"
     y="80.326706"
     fill="#9bf33e"
     text-align="end"
     style="font-size:14.1115px;line-height:125%;font-family:sans-serif;font-variant-ligatures:normal;font-variant-caps:normal;font-variant-numeric:normal;font-feature-settings:normal;letter-spacing:0px;word-spacing:0px;text-anchor:end;stroke-width:0.890075px"
     xml:space="preserve"
     id="text12"><tspan
       x="335.75272"
       y="80.326706"
       fill="#9bf33e"
       font-family="sans-serif"
       font-size="14.1115px"
       stroke-width="0.890075px"
       text-align="end"
       text-anchor="end"
       style="font-variant-ligatures:normal;font-variant-caps:normal;font-variant-numeric:normal;font-feature-settings:normal"
       id="tspan12">Accuracy error</tspan></text>
  <text
     transform="scale(0.98904093,1.0110805)"
     x="431.88306"
     y="278.61334"
     fill="#fc7d62"
     text-align="end"
     style="font-size:14.1115px;line-height:125%;font-family:sans-serif;font-variant-ligatures:normal;font-variant-caps:normal;font-variant-numeric:normal;font-feature-settings:normal;letter-spacing:0px;word-spacing:0px;text-anchor:end;stroke-width:0.890075px"
     xml:space="preserve"
     id="text13"><tspan
       x="431.88306"
       y="278.61334"
       fill="#fc7d62"
       font-family="sans-serif"
       font-size="14.1115px"
       stroke-width="0.890075px"
       text-align="end"
       text-anchor="end"
       style="font-variant-ligatures:normal;font-variant-caps:normal;font-variant-numeric:normal;font-feature-settings:normal"
       id="tspan13">Precision error</tspan></text>
  <g
     transform="matrix(3.3333 0 0 3.3333 27.37 10.297)"
     fill="#fff"
     font-family="sans-serif"
     letter-spacing="0px"
     stroke-width=".26459px"
     word-spacing="0px"
     id="g18">
    <text
       x="1.8047999"
       y="70.576004"
       font-size="10.583px"
       style="line-height:125%"
       xml:space="preserve"
       id="text14"><tspan
         x="1.8047999"
         y="70.576004"
         fill="#ffffff"
         font-family="sans-serif"
         font-size="4.2334px"
         stroke-width=".26459px"
         style="font-feature-settings:normal;font-variant-caps:normal;font-variant-ligatures:normal;font-variant-numeric:normal"
         id="tspan14">Prob</tspan></text>
    <text
       x="11.502576"
       y="75.218559"
       font-size="10.583px"
       style="line-height:125%"
       xml:space="preserve"
       id="text15"><tspan
         x="11.502576"
         y="75.218559"
         fill="#ffffff"
         font-family="sans-serif"
         font-size="4.2334px"
         stroke-width="0.26459px"
         style="font-variant-ligatures:normal;font-variant-caps:normal;font-variant-numeric:normal;font-feature-settings:normal"
         id="tspan15">Sensor reading</tspan></text>
    <text
       x="48.900921"
       y="57.422108"
       font-size="4.2334px"
       text-anchor="end"
       style="font-feature-settings:normal;font-variant-caps:normal;font-variant-ligatures:normal;font-variant-numeric:normal;line-height:125%"
       xml:space="preserve"
       id="text18"><tspan
         x="48.900921"
         y="57.422108"
         text-align="end"
         style="font-feature-settings:normal;font-variant-caps:normal;font-variant-ligatures:normal;font-variant-numeric:normal"
         id="tspan16">'True' or</tspan><tspan
         x="48.900921"
         y="62.713837"
         text-align="end"
         style="font-feature-settings:normal;font-variant-caps:normal;font-variant-ligatures:normal;font-variant-numeric:normal"
         id="tspan17">reference</tspan><tspan
         x="48.900921"
         y="68.005562"
         text-align="end"
         style="font-feature-settings:normal;font-variant-caps:normal;font-variant-ligatures:normal;font-variant-numeric:normal"
         id="tspan18">value</tspan></text>
  </g>
</svg>
