<?xml version="1.0" encoding="UTF-8"?>
<!DOCTYPE svg PUBLIC "-//W3C//DTD SVG 1.1//EN" "http://www.w3.org/Graphics/SVG/1.1/DTD/svg11.dtd">
<svg viewBox="0 0 16000 9000" version="1.1" xmlns="http://www.w3.org/2000/svg" stroke-width="28.222" stroke-linejoin="round" xml:space="preserve">
 <path fill="rgb(255,255,255)" stroke="none" d="M 8000,8999 L 0,8999 0,0 15999,0 15999,8999 8000,8999 Z"/>
 <path fill="none" stroke="rgb(179,179,179)" stroke-linejoin="round" d="M 8524,7216 L 1759,7216 1759,1496 15289,1496 15289,7216 8524,7216 Z"/>
 <path fill="none" stroke="rgb(179,179,179)" stroke-linejoin="round" d="M 15289,7215 L 1759,7215"/>
 <path fill="none" stroke="rgb(179,179,179)" stroke-linejoin="round" d="M 15289,6642 L 1759,6642"/>
 <path fill="none" stroke="rgb(179,179,179)" stroke-linejoin="round" d="M 15289,6070 L 1759,6070"/>
 <path fill="none" stroke="rgb(179,179,179)" stroke-linejoin="round" d="M 15289,5498 L 1759,5498"/>
 <path fill="none" stroke="rgb(179,179,179)" stroke-linejoin="round" d="M 15289,4926 L 1759,4926"/>
 <path fill="none" stroke="rgb(179,179,179)" stroke-linejoin="round" d="M 15289,4355 L 1759,4355"/>
 <path fill="none" stroke="rgb(179,179,179)" stroke-linejoin="round" d="M 15289,3783 L 1759,3783"/>
 <path fill="none" stroke="rgb(179,179,179)" stroke-linejoin="round" d="M 15289,3211 L 1759,3211"/>
 <path fill="none" stroke="rgb(179,179,179)" stroke-linejoin="round" d="M 15289,2639 L 1759,2639"/>
 <path fill="none" stroke="rgb(179,179,179)" stroke-linejoin="round" d="M 15289,2067 L 1759,2067"/>
 <path fill="none" stroke="rgb(179,179,179)" stroke-linejoin="round" d="M 15289,1495 L 1759,1495"/>
 <path fill="none" stroke="rgb(179,179,179)" stroke-linejoin="round" d="M 1759,7365 L 1759,7215"/>
 <path fill="none" stroke="rgb(179,179,179)" stroke-linejoin="round" d="M 1759,7365 L 1759,7215"/>
 <path fill="none" stroke="rgb(179,179,179)" stroke-linejoin="round" d="M 3262,7365 L 3262,7215"/>
 <path fill="none" stroke="rgb(179,179,179)" stroke-linejoin="round" d="M 3262,7365 L 3262,7215"/>
 <path fill="none" stroke="rgb(179,179,179)" stroke-linejoin="round" d="M 4765,7365 L 4765,7215"/>
 <path fill="none" stroke="rgb(179,179,179)" stroke-linejoin="round" d="M 4765,7365 L 4765,7215"/>
 <path fill="none" stroke="rgb(179,179,179)" stroke-linejoin="round" d="M 6269,7365 L 6269,7215"/>
 <path fill="none" stroke="rgb(179,179,179)" stroke-linejoin="round" d="M 6269,7365 L 6269,7215"/>
 <path fill="none" stroke="rgb(179,179,179)" stroke-linejoin="round" d="M 7772,7365 L 7772,7215"/>
 <path fill="none" stroke="rgb(179,179,179)" stroke-linejoin="round" d="M 7772,7365 L 7772,7215"/>
 <path fill="none" stroke="rgb(179,179,179)" stroke-linejoin="round" d="M 9275,7365 L 9275,7215"/>
 <path fill="none" stroke="rgb(179,179,179)" stroke-linejoin="round" d="M 9275,7365 L 9275,7215"/>
 <path fill="none" stroke="rgb(179,179,179)" stroke-linejoin="round" d="M 10778,7365 L 10778,7215"/>
 <path fill="none" stroke="rgb(179,179,179)" stroke-linejoin="round" d="M 10778,7365 L 10778,7215"/>
 <path fill="none" stroke="rgb(179,179,179)" stroke-linejoin="round" d="M 12282,7365 L 12282,7215"/>
 <path fill="none" stroke="rgb(179,179,179)" stroke-linejoin="round" d="M 12282,7365 L 12282,7215"/>
 <path fill="none" stroke="rgb(179,179,179)" stroke-linejoin="round" d="M 13785,7365 L 13785,7215"/>
 <path fill="none" stroke="rgb(179,179,179)" stroke-linejoin="round" d="M 13785,7365 L 13785,7215"/>
 <path fill="none" stroke="rgb(179,179,179)" stroke-linejoin="round" d="M 15289,7365 L 15289,7215"/>
 <path fill="none" stroke="rgb(179,179,179)" stroke-linejoin="round" d="M 15289,7365 L 15289,7215"/>
 <path fill="none" stroke="rgb(179,179,179)" stroke-linejoin="round" d="M 1759,7215 L 15289,7215"/>
 <path fill="none" stroke="rgb(179,179,179)" stroke-linejoin="round" d="M 1609,7215 L 1759,7215"/>
 <path fill="none" stroke="rgb(179,179,179)" stroke-linejoin="round" d="M 1609,7215 L 1759,7215"/>
 <path fill="none" stroke="rgb(179,179,179)" stroke-linejoin="round" d="M 1609,6642 L 1759,6642"/>
 <path fill="none" stroke="rgb(179,179,179)" stroke-linejoin="round" d="M 1609,6642 L 1759,6642"/>
 <path fill="none" stroke="rgb(179,179,179)" stroke-linejoin="round" d="M 1609,6070 L 1759,6070"/>
 <path fill="none" stroke="rgb(179,179,179)" stroke-linejoin="round" d="M 1609,6070 L 1759,6070"/>
 <path fill="none" stroke="rgb(179,179,179)" stroke-linejoin="round" d="M 1609,5498 L 1759,5498"/>
 <path fill="none" stroke="rgb(179,179,179)" stroke-linejoin="round" d="M 1609,5498 L 1759,5498"/>
 <path fill="none" stroke="rgb(179,179,179)" stroke-linejoin="round" d="M 1609,4926 L 1759,4926"/>
 <path fill="none" stroke="rgb(179,179,179)" stroke-linejoin="round" d="M 1609,4926 L 1759,4926"/>
 <path fill="none" stroke="rgb(179,179,179)" stroke-linejoin="round" d="M 1609,4355 L 1759,4355"/>
 <path fill="none" stroke="rgb(179,179,179)" stroke-linejoin="round" d="M 1609,4355 L 1759,4355"/>
 <path fill="none" stroke="rgb(179,179,179)" stroke-linejoin="round" d="M 1609,3783 L 1759,3783"/>
 <path fill="none" stroke="rgb(179,179,179)" stroke-linejoin="round" d="M 1609,3783 L 1759,3783"/>
 <path fill="none" stroke="rgb(179,179,179)" stroke-linejoin="round" d="M 1609,3211 L 1759,3211"/>
 <path fill="none" stroke="rgb(179,179,179)" stroke-linejoin="round" d="M 1609,3211 L 1759,3211"/>
 <path fill="none" stroke="rgb(179,179,179)" stroke-linejoin="round" d="M 1609,2639 L 1759,2639"/>
 <path fill="none" stroke="rgb(179,179,179)" stroke-linejoin="round" d="M 1609,2639 L 1759,2639"/>
 <path fill="none" stroke="rgb(179,179,179)" stroke-linejoin="round" d="M 1609,2067 L 1759,2067"/>
 <path fill="none" stroke="rgb(179,179,179)" stroke-linejoin="round" d="M 1609,2067 L 1759,2067"/>
 <path fill="none" stroke="rgb(179,179,179)" stroke-linejoin="round" d="M 1609,1495 L 1759,1495"/>
 <path fill="none" stroke="rgb(179,179,179)" stroke-linejoin="round" d="M 1609,1495 L 1759,1495"/>
 <path fill="none" stroke="rgb(179,179,179)" stroke-linejoin="round" d="M 1759,7215 L 1759,1495"/>
 <path fill="rgb(0,69,134)" stroke="none" d="M 1934,5724 L 1934,5974 2184,5974 2184,5724 1934,5724 Z"/>
 <path fill="none" stroke="rgb(0,69,134)" stroke-linejoin="round" d="M 1934,5724 L 1934,5974 2184,5974 2184,5724 1934,5724 Z"/>
 <path fill="rgb(0,69,134)" stroke="none" d="M 2235,5863 L 2235,6113 2485,6113 2485,5863 2235,5863 Z"/>
 <path fill="none" stroke="rgb(0,69,134)" stroke-linejoin="round" d="M 2235,5863 L 2235,6113 2485,6113 2485,5863 2235,5863 Z"/>
 <path fill="rgb(0,69,134)" stroke="none" d="M 2536,5155 L 2536,5405 2786,5405 2786,5155 2536,5155 Z"/>
 <path fill="none" stroke="rgb(0,69,134)" stroke-linejoin="round" d="M 2536,5155 L 2536,5405 2786,5405 2786,5155 2536,5155 Z"/>
 <path fill="rgb(0,69,134)" stroke="none" d="M 2836,5399 L 2836,5649 3086,5649 3086,5399 2836,5399 Z"/>
 <path fill="none" stroke="rgb(0,69,134)" stroke-linejoin="round" d="M 2836,5399 L 2836,5649 3086,5649 3086,5399 2836,5399 Z"/>
 <path fill="rgb(0,69,134)" stroke="none" d="M 3137,5538 L 3137,5788 3387,5788 3387,5538 3137,5538 Z"/>
 <path fill="none" stroke="rgb(0,69,134)" stroke-linejoin="round" d="M 3137,5538 L 3137,5788 3387,5788 3387,5538 3137,5538 Z"/>
 <path fill="rgb(0,69,134)" stroke="none" d="M 3438,5834 L 3438,6084 3688,6084 3688,5834 3438,5834 Z"/>
 <path fill="none" stroke="rgb(0,69,134)" stroke-linejoin="round" d="M 3438,5834 L 3438,6084 3688,6084 3688,5834 3438,5834 Z"/>
 <path fill="rgb(0,69,134)" stroke="none" d="M 3738,5164 L 3738,5414 3988,5414 3988,5164 3738,5164 Z"/>
 <path fill="none" stroke="rgb(0,69,134)" stroke-linejoin="round" d="M 3738,5164 L 3738,5414 3988,5414 3988,5164 3738,5164 Z"/>
 <path fill="rgb(0,69,134)" stroke="none" d="M 4039,5592 L 4039,5842 4289,5842 4289,5592 4039,5592 Z"/>
 <path fill="none" stroke="rgb(0,69,134)" stroke-linejoin="round" d="M 4039,5592 L 4039,5842 4289,5842 4289,5592 4039,5592 Z"/>
 <path fill="rgb(0,69,134)" stroke="none" d="M 4340,5662 L 4340,5912 4590,5912 4590,5662 4340,5662 Z"/>
 <path fill="none" stroke="rgb(0,69,134)" stroke-linejoin="round" d="M 4340,5662 L 4340,5912 4590,5912 4590,5662 4340,5662 Z"/>
 <path fill="rgb(0,69,134)" stroke="none" d="M 4640,5601 L 4640,5851 4890,5851 4890,5601 4640,5601 Z"/>
 <path fill="none" stroke="rgb(0,69,134)" stroke-linejoin="round" d="M 4640,5601 L 4640,5851 4890,5851 4890,5601 4640,5601 Z"/>
 <path fill="rgb(0,69,134)" stroke="none" d="M 4941,5374 L 4941,5624 5191,5624 5191,5374 4941,5374 Z"/>
 <path fill="none" stroke="rgb(0,69,134)" stroke-linejoin="round" d="M 4941,5374 L 4941,5624 5191,5624 5191,5374 4941,5374 Z"/>
 <path fill="rgb(0,69,134)" stroke="none" d="M 5242,5629 L 5242,5879 5492,5879 5492,5629 5242,5629 Z"/>
 <path fill="none" stroke="rgb(0,69,134)" stroke-linejoin="round" d="M 5242,5629 L 5242,5879 5492,5879 5492,5629 5242,5629 Z"/>
 <path fill="rgb(0,69,134)" stroke="none" d="M 5542,5454 L 5542,5704 5792,5704 5792,5454 5542,5454 Z"/>
 <path fill="none" stroke="rgb(0,69,134)" stroke-linejoin="round" d="M 5542,5454 L 5542,5704 5792,5704 5792,5454 5542,5454 Z"/>
 <path fill="rgb(0,69,134)" stroke="none" d="M 5843,5645 L 5843,5895 6093,5895 6093,5645 5843,5645 Z"/>
 <path fill="none" stroke="rgb(0,69,134)" stroke-linejoin="round" d="M 5843,5645 L 5843,5895 6093,5895 6093,5645 5843,5645 Z"/>
 <path fill="rgb(0,69,134)" stroke="none" d="M 6144,5682 L 6144,5932 6394,5932 6394,5682 6144,5682 Z"/>
 <path fill="none" stroke="rgb(0,69,134)" stroke-linejoin="round" d="M 6144,5682 L 6144,5932 6394,5932 6394,5682 6144,5682 Z"/>
 <path fill="rgb(0,69,134)" stroke="none" d="M 6445,5689 L 6445,5939 6695,5939 6695,5689 6445,5689 Z"/>
 <path fill="none" stroke="rgb(0,69,134)" stroke-linejoin="round" d="M 6445,5689 L 6445,5939 6695,5939 6695,5689 6445,5689 Z"/>
 <path fill="rgb(0,69,134)" stroke="none" d="M 6745,5431 L 6745,5681 6995,5681 6995,5431 6745,5431 Z"/>
 <path fill="none" stroke="rgb(0,69,134)" stroke-linejoin="round" d="M 6745,5431 L 6745,5681 6995,5681 6995,5431 6745,5431 Z"/>
 <path fill="rgb(0,69,134)" stroke="none" d="M 7046,5286 L 7046,5536 7296,5536 7296,5286 7046,5286 Z"/>
 <path fill="none" stroke="rgb(0,69,134)" stroke-linejoin="round" d="M 7046,5286 L 7046,5536 7296,5536 7296,5286 7046,5286 Z"/>
 <path fill="rgb(0,69,134)" stroke="none" d="M 7347,5520 L 7347,5770 7597,5770 7597,5520 7347,5520 Z"/>
 <path fill="none" stroke="rgb(0,69,134)" stroke-linejoin="round" d="M 7347,5520 L 7347,5770 7597,5770 7597,5520 7347,5520 Z"/>
 <path fill="rgb(0,69,134)" stroke="none" d="M 7647,5442 L 7647,5692 7897,5692 7897,5442 7647,5442 Z"/>
 <path fill="none" stroke="rgb(0,69,134)" stroke-linejoin="round" d="M 7647,5442 L 7647,5692 7897,5692 7897,5442 7647,5442 Z"/>
 <path fill="rgb(0,69,134)" stroke="none" d="M 7948,6007 L 7948,6257 8197,6257 8197,6007 7948,6007 Z"/>
 <path fill="none" stroke="rgb(0,69,134)" stroke-linejoin="round" d="M 7948,6007 L 7948,6257 8197,6257 8197,6007 7948,6007 Z"/>
 <path fill="rgb(0,69,134)" stroke="none" d="M 8248,5644 L 8248,5894 8498,5894 8498,5644 8248,5644 Z"/>
 <path fill="none" stroke="rgb(0,69,134)" stroke-linejoin="round" d="M 8248,5644 L 8248,5894 8498,5894 8498,5644 8248,5644 Z"/>
 <path fill="rgb(0,69,134)" stroke="none" d="M 8548,5521 L 8548,5771 8798,5771 8798,5521 8548,5521 Z"/>
 <path fill="none" stroke="rgb(0,69,134)" stroke-linejoin="round" d="M 8548,5521 L 8548,5771 8798,5771 8798,5521 8548,5521 Z"/>
 <path fill="rgb(0,69,134)" stroke="none" d="M 8849,5965 L 8849,6215 9099,6215 9099,5965 8849,5965 Z"/>
 <path fill="none" stroke="rgb(0,69,134)" stroke-linejoin="round" d="M 8849,5965 L 8849,6215 9099,6215 9099,5965 8849,5965 Z"/>
 <path fill="rgb(0,69,134)" stroke="none" d="M 9150,5489 L 9150,5739 9400,5739 9400,5489 9150,5489 Z"/>
 <path fill="none" stroke="rgb(0,69,134)" stroke-linejoin="round" d="M 9150,5489 L 9150,5739 9400,5739 9400,5489 9150,5489 Z"/>
 <path fill="rgb(0,69,134)" stroke="none" d="M 9450,5482 L 9450,5732 9700,5732 9700,5482 9450,5482 Z"/>
 <path fill="none" stroke="rgb(0,69,134)" stroke-linejoin="round" d="M 9450,5482 L 9450,5732 9700,5732 9700,5482 9450,5482 Z"/>
 <path fill="rgb(0,69,134)" stroke="none" d="M 9751,5769 L 9751,6019 10001,6019 10001,5769 9751,5769 Z"/>
 <path fill="none" stroke="rgb(0,69,134)" stroke-linejoin="round" d="M 9751,5769 L 9751,6019 10001,6019 10001,5769 9751,5769 Z"/>
 <path fill="rgb(0,69,134)" stroke="none" d="M 10052,5618 L 10052,5868 10302,5868 10302,5618 10052,5618 Z"/>
 <path fill="none" stroke="rgb(0,69,134)" stroke-linejoin="round" d="M 10052,5618 L 10052,5868 10302,5868 10302,5618 10052,5618 Z"/>
 <path fill="rgb(0,69,134)" stroke="none" d="M 10352,5258 L 10352,5508 10602,5508 10602,5258 10352,5258 Z"/>
 <path fill="none" stroke="rgb(0,69,134)" stroke-linejoin="round" d="M 10352,5258 L 10352,5508 10602,5508 10602,5258 10352,5258 Z"/>
 <path fill="rgb(0,69,134)" stroke="none" d="M 10653,5586 L 10653,5836 10903,5836 10903,5586 10653,5586 Z"/>
 <path fill="none" stroke="rgb(0,69,134)" stroke-linejoin="round" d="M 10653,5586 L 10653,5836 10903,5836 10903,5586 10653,5586 Z"/>
 <path fill="rgb(0,69,134)" stroke="none" d="M 10954,5894 L 10954,6144 11204,6144 11204,5894 10954,5894 Z"/>
 <path fill="none" stroke="rgb(0,69,134)" stroke-linejoin="round" d="M 10954,5894 L 10954,6144 11204,6144 11204,5894 10954,5894 Z"/>
 <path fill="rgb(0,69,134)" stroke="none" d="M 11255,5606 L 11255,5856 11505,5856 11505,5606 11255,5606 Z"/>
 <path fill="none" stroke="rgb(0,69,134)" stroke-linejoin="round" d="M 11255,5606 L 11255,5856 11505,5856 11505,5606 11255,5606 Z"/>
 <path fill="rgb(0,69,134)" stroke="none" d="M 11555,5999 L 11555,6249 11805,6249 11805,5999 11555,5999 Z"/>
 <path fill="none" stroke="rgb(0,69,134)" stroke-linejoin="round" d="M 11555,5999 L 11555,6249 11805,6249 11805,5999 11555,5999 Z"/>
 <path fill="rgb(0,69,134)" stroke="none" d="M 11856,6037 L 11856,6287 12106,6287 12106,6037 11856,6037 Z"/>
 <path fill="none" stroke="rgb(0,69,134)" stroke-linejoin="round" d="M 11856,6037 L 11856,6287 12106,6287 12106,6037 11856,6037 Z"/>
 <path fill="rgb(0,69,134)" stroke="none" d="M 12157,5645 L 12157,5895 12407,5895 12407,5645 12157,5645 Z"/>
 <path fill="none" stroke="rgb(0,69,134)" stroke-linejoin="round" d="M 12157,5645 L 12157,5895 12407,5895 12407,5645 12157,5645 Z"/>
 <path fill="rgb(0,69,134)" stroke="none" d="M 12457,5512 L 12457,5762 12707,5762 12707,5512 12457,5512 Z"/>
 <path fill="none" stroke="rgb(0,69,134)" stroke-linejoin="round" d="M 12457,5512 L 12457,5762 12707,5762 12707,5512 12457,5512 Z"/>
 <path fill="rgb(0,69,134)" stroke="none" d="M 12758,5504 L 12758,5754 13008,5754 13008,5504 12758,5504 Z"/>
 <path fill="none" stroke="rgb(0,69,134)" stroke-linejoin="round" d="M 12758,5504 L 12758,5754 13008,5754 13008,5504 12758,5504 Z"/>
 <path fill="rgb(0,69,134)" stroke="none" d="M 13059,6136 L 13059,6386 13309,6386 13309,6136 13059,6136 Z"/>
 <path fill="none" stroke="rgb(0,69,134)" stroke-linejoin="round" d="M 13059,6136 L 13059,6386 13309,6386 13309,6136 13059,6136 Z"/>
 <path fill="rgb(0,69,134)" stroke="none" d="M 13359,5845 L 13359,6095 13609,6095 13609,5845 13359,5845 Z"/>
 <path fill="none" stroke="rgb(0,69,134)" stroke-linejoin="round" d="M 13359,5845 L 13359,6095 13609,6095 13609,5845 13359,5845 Z"/>
 <path fill="rgb(0,69,134)" stroke="none" d="M 13660,5765 L 13660,6015 13910,6015 13910,5765 13660,5765 Z"/>
 <path fill="none" stroke="rgb(0,69,134)" stroke-linejoin="round" d="M 13660,5765 L 13660,6015 13910,6015 13910,5765 13660,5765 Z"/>
 <text class="TextShape"><tspan class="TextParagraph" font-family="Liberation Sans, sans-serif" font-size="353px" font-weight="400"><tspan class="TextPosition" x="1662" y="7783"><tspan fill="rgb(0,0,0)" stroke="none">0</tspan></tspan></tspan></text>
 <text class="TextShape"><tspan class="TextParagraph" font-family="Liberation Sans, sans-serif" font-size="353px" font-weight="400"><tspan class="TextPosition" x="3165" y="7783"><tspan fill="rgb(0,0,0)" stroke="none">5</tspan></tspan></tspan></text>
 <text class="TextShape"><tspan class="TextParagraph" font-family="Liberation Sans, sans-serif" font-size="353px" font-weight="400"><tspan class="TextPosition" x="4571" y="7783"><tspan fill="rgb(0,0,0)" stroke="none">10</tspan></tspan></tspan></text>
 <text class="TextShape"><tspan class="TextParagraph" font-family="Liberation Sans, sans-serif" font-size="353px" font-weight="400"><tspan class="TextPosition" x="6075" y="7783"><tspan fill="rgb(0,0,0)" stroke="none">15</tspan></tspan></tspan></text>
 <text class="TextShape"><tspan class="TextParagraph" font-family="Liberation Sans, sans-serif" font-size="353px" font-weight="400"><tspan class="TextPosition" x="7578" y="7783"><tspan fill="rgb(0,0,0)" stroke="none">20</tspan></tspan></tspan></text>
 <text class="TextShape"><tspan class="TextParagraph" font-family="Liberation Sans, sans-serif" font-size="353px" font-weight="400"><tspan class="TextPosition" x="9082" y="7783"><tspan fill="rgb(0,0,0)" stroke="none">25</tspan></tspan></tspan></text>
 <text class="TextShape"><tspan class="TextParagraph" font-family="Liberation Sans, sans-serif" font-size="353px" font-weight="400"><tspan class="TextPosition" x="10585" y="7783"><tspan fill="rgb(0,0,0)" stroke="none">30</tspan></tspan></tspan></text>
 <text class="TextShape"><tspan class="TextParagraph" font-family="Liberation Sans, sans-serif" font-size="353px" font-weight="400"><tspan class="TextPosition" x="12089" y="7783"><tspan fill="rgb(0,0,0)" stroke="none">35</tspan></tspan></tspan></text>
 <text class="TextShape"><tspan class="TextParagraph" font-family="Liberation Sans, sans-serif" font-size="353px" font-weight="400"><tspan class="TextPosition" x="13592" y="7783"><tspan fill="rgb(0,0,0)" stroke="none">40</tspan></tspan></tspan></text>
 <text class="TextShape"><tspan class="TextParagraph" font-family="Liberation Sans, sans-serif" font-size="353px" font-weight="400"><tspan class="TextPosition" x="15096" y="7783"><tspan fill="rgb(0,0,0)" stroke="none">45</tspan></tspan></tspan></text>
 <text class="TextShape"><tspan class="TextParagraph" font-family="Liberation Sans, sans-serif" font-size="353px" font-weight="400"><tspan class="TextPosition" x="1315" y="7340"><tspan fill="rgb(0,0,0)" stroke="none">0</tspan></tspan></tspan></text>
 <text class="TextShape"><tspan class="TextParagraph" font-family="Liberation Sans, sans-serif" font-size="353px" font-weight="400"><tspan class="TextPosition" x="1315" y="6767"><tspan fill="rgb(0,0,0)" stroke="none">2</tspan></tspan></tspan></text>
 <text class="TextShape"><tspan class="TextParagraph" font-family="Liberation Sans, sans-serif" font-size="353px" font-weight="400"><tspan class="TextPosition" x="1315" y="6195"><tspan fill="rgb(0,0,0)" stroke="none">4</tspan></tspan></tspan></text>
 <text class="TextShape"><tspan class="TextParagraph" font-family="Liberation Sans, sans-serif" font-size="353px" font-weight="400"><tspan class="TextPosition" x="1315" y="5623"><tspan fill="rgb(0,0,0)" stroke="none">6</tspan></tspan></tspan></text>
 <text class="TextShape"><tspan class="TextParagraph" font-family="Liberation Sans, sans-serif" font-size="353px" font-weight="400"><tspan class="TextPosition" x="1315" y="5051"><tspan fill="rgb(0,0,0)" stroke="none">8</tspan></tspan></tspan></text>
 <text class="TextShape"><tspan class="TextParagraph" font-family="Liberation Sans, sans-serif" font-size="353px" font-weight="400"><tspan class="TextPosition" x="1121" y="4479"><tspan fill="rgb(0,0,0)" stroke="none">10</tspan></tspan></tspan></text>
 <text class="TextShape"><tspan class="TextParagraph" font-family="Liberation Sans, sans-serif" font-size="353px" font-weight="400"><tspan class="TextPosition" x="1121" y="3907"><tspan fill="rgb(0,0,0)" stroke="none">12</tspan></tspan></tspan></text>
 <text class="TextShape"><tspan class="TextParagraph" font-family="Liberation Sans, sans-serif" font-size="353px" font-weight="400"><tspan class="TextPosition" x="1121" y="3335"><tspan fill="rgb(0,0,0)" stroke="none">14</tspan></tspan></tspan></text>
 <text class="TextShape"><tspan class="TextParagraph" font-family="Liberation Sans, sans-serif" font-size="353px" font-weight="400"><tspan class="TextPosition" x="1121" y="2763"><tspan fill="rgb(0,0,0)" stroke="none">16</tspan></tspan></tspan></text>
 <text class="TextShape"><tspan class="TextParagraph" font-family="Liberation Sans, sans-serif" font-size="353px" font-weight="400"><tspan class="TextPosition" x="1121" y="2191"><tspan fill="rgb(0,0,0)" stroke="none">18</tspan></tspan></tspan></text>
 <text class="TextShape"><tspan class="TextParagraph" font-family="Liberation Sans, sans-serif" font-size="353px" font-weight="400"><tspan class="TextPosition" x="1121" y="1619"><tspan fill="rgb(0,0,0)" stroke="none">20</tspan></tspan></tspan></text>
 <text class="TextShape"><tspan class="TextParagraph" font-family="Liberation Sans, sans-serif" font-size="459px" font-weight="400"><tspan class="TextPosition" x="5178" y="877"><tspan fill="rgb(0,0,0)" stroke="none">Target reference value of 10</tspan></tspan></tspan></text>
 <text class="TextShape"><tspan class="TextParagraph" font-family="Liberation Sans, sans-serif" font-size="318px" font-weight="400"><tspan class="TextPosition" x="7377" y="8414"><tspan fill="rgb(0,0,0)" stroke="none">Sample number</tspan></tspan></tspan></text>
 <text class="TextShape" transform="translate(828,5168) rotate(-90) translate(-828,-5168)"><tspan class="TextParagraph" font-family="Liberation Sans, sans-serif" font-size="318px" font-weight="400"><tspan class="TextPosition" x="828" y="5168"><tspan fill="rgb(0,0,0)" stroke="none">Reading</tspan></tspan></tspan></text>
</svg>
